<?xml version="1.0" encoding="utf-8"?>
<!-- Svg Vector Icons : http://www.onlinewebfonts.com/icon -->
<!DOCTYPE svg PUBLIC "-//W3C//DTD SVG 1.1//EN" "http://www.w3.org/Graphics/SVG/1.1/DTD/svg11.dtd">
<svg version="1.1" xmlns="http://www.w3.org/2000/svg" xmlns:xlink="http://www.w3.org/1999/xlink" x="0px" y="0px" viewBox="0 0 256 256" enable-background="new 0 0 256 256" xml:space="preserve">
<g><g><path fill="currentColor" d="M139.8,75.7c28.8-6.8,54.4-31.8,85.6-24.5c9.4,2.1,26.3,11.1,18.7,22.5c-18.3,18.1-44.7,24.2-65.5,38.4c-14.6,26.8-24.5,56.2-40,82.5c-5.7,6.9-22.9,19-26.6,5c1.7-21.4,7.6-42.4,11.3-63.5c-23.6,9.4-47.3,21.3-73.1,22.3c-8.6,0.4-19.3-1.6-22.7-10.6c-6-13.1-12.7-25.9-17.2-39.6c-2.3-9.6,10.5-14.8,18-11.2c9.6,4.6,17.2,12.4,26.2,18.2c12.8-5.5,25.3-11.5,38-17.1c-9.4-6-19.1-11.5-28.6-17.2c-4.8-3-11.4-7.4-8.6-14c8-8.3,20.7-9.7,31.4-6.7C104.4,65.2,121.7,72,139.8,75.7z M197.9,63.4c-48.1,20-94.8,43.4-143.1,62.6c-13.1-3.3-21.8-15.7-34.4-20.6c5.7,13.9,11.6,27.7,18.3,41.2c35.3,4.2,66.9-16.3,98.6-28.3c-4.8,25.3-9.9,50.6-13.8,76.2c4.9-4.8,9.6-9.9,12.4-16.3c11.5-25.5,23.2-50.8,35.2-76c22-10.6,45.2-19.8,64.5-34.9C224.5,60.2,210.3,58,197.9,63.4z M68.6,70.6c11.4,8.1,23.9,14.7,35.7,22.2c7.1-3.1,14.1-6.3,21.2-9.2C106.7,78.9,88.5,68.1,68.6,70.6z"/></g></g>
</svg>